# xmcd
#
# Track frame offsets: 
#        150
#        13866
#        28433
#        41088
#        53941
#        66767
#        80118
#        90333
#        103952
#        116519
#
# Disc length: 1743 seconds
#
# Revision: 0
# Processed by: cddbd v1.5.2PL0 Copyright (c) Steve Scherf et al.
# Submitted via: ExactAudioCopy v1.3
#
DISCID=8a06cd0a
DTITLE=B. J. Thomas - Help Me Make It (To My Rockin' Chair)
DYEAR=1975
DGENRE=Country
TTITLE0=Help Me Make It (To My Rockin' Chair)
TTITLE1=Ballyhoo Days
TTITLE2=What A Way To Go
TTITLE3=Why Don't We Go Somewhere And Love
TTITLE4=Today I Started Lovin' You Again
TTITLE5=Late Late Dominos
TTITLE6=Lyin' Again
TTITLE7=Good Time Charlie's Got The Blues
TTITLE8=We Are Happy Together
TTITLE9=Let It Be Me
EXTD=
EXTT0=
EXTT1=
EXTT2=
EXTT3=
EXTT4=
EXTT5=
EXTT6=
EXTT7=
EXTT8=
EXTT9=
PLAYORDER=
